<?xml version="1.0" encoding="utf-8"?>
<!-- Generator: Adobe Illustrator 15.0.0, SVG Export Plug-In . SVG Version: 6.00 Build 0)  -->
<!DOCTYPE svg PUBLIC "-//W3C//DTD SVG 1.1//EN" "http://www.w3.org/Graphics/SVG/1.1/DTD/svg11.dtd">
<svg version="1.1" xmlns="http://www.w3.org/2000/svg" xmlns:xlink="http://www.w3.org/1999/xlink" x="0px" y="0px" width="241px"
	 height="241px" viewBox="0 0 241 241" enable-background="new 0 0 241 241" xml:space="preserve">
<g id="타원_1_1_" enable-background="new    ">
	<g id="타원_1">
		<g>
			<circle fill-rule="evenodd" clip-rule="evenodd" fill="#FFFFFF" cx="120.5" cy="120.5" r="120.5"/>
		</g>
	</g>
</g>
<g id="Forma_1_1_" enable-background="new    ">
	<g id="Forma_1">
		<g>
			<path fill-rule="evenodd" clip-rule="evenodd" fill="#8CC9F0" d="M121,65c-19.851,0-36,16.174-36,36.055
				c0,8.007,5.105,21.061,15.607,39.908c7.429,13.331,14.735,24.446,15.042,24.913L121,174l5.352-8.124
				c0.307-0.467,7.613-11.582,15.041-24.912C151.895,122.115,157,109.062,157,101.055C157,81.174,140.85,65,121,65z M121,119.5
				c-10.306,0-18.661-8.367-18.661-18.689c0-10.321,8.355-18.688,18.661-18.688s18.66,8.367,18.66,18.688
				C139.66,111.133,131.306,119.5,121,119.5z"/>
		</g>
	</g>
</g>
</svg>
